<svg xmlns="http://www.w3.org/2000/svg" viewBox="0 0 942 874">
  <style>
    g { fill: #000; }
    @media (prefers-color-scheme: dark) {
      g { fill: #fff; }
    }
  </style>
  <g transform="translate(0,874) scale(0.1,-0.1)">
    <path d="M2575 8403 c-653 -57 -1276 -403 -1670 -928 -246 -327 -401 -689
-476 -1110 -27 -153 -37 -493 -20 -657 26 -242 93 -509 198 -795 43 -117 54
-136 68 -113 12 19 131 78 197 99 37 11 101 23 143 27 41 4 75 8 75 9 0 2 -14
34 -30 71 -87 192 -160 442 -196 669 -24 144 -24 439 -1 575 80 473 277 857
599 1165 131 125 232 201 389 291 569 324 1259 321 1816 -8 166 -99 269 -182
443 -358 185 -186 206 -204 305 -253 107 -52 154 -62 300 -62 115 1 139 4 206
27 135 48 188 87 383 283 186 188 280 264 442 361 309 185 702 276 1055 245
335 -30 606 -126 894 -316 460 -305 773 -814 856 -1395 18 -125 16 -433 -4
-558 -32 -200 -111 -473 -192 -663 l-33 -76 86 -6 c105 -7 213 -41 289 -92 30
-20 56 -35 58 -33 9 10 109 290 135 378 91 309 115 477 114 805 -1 235 -3 274
-27 406 -76 418 -222 757 -470 1089 -93 124 -325 355 -453 451 -729 547 -1630
629 -2428 221 -237 -121 -406 -249 -638 -484 -168 -170 -207 -198 -269 -198
-80 0 -108 18 -254 168 -77 80 -183 180 -235 224 -354 298 -810 492 -1259 538
-96 9 -304 11 -396 3z"/>
    <path d="M3760 6251 c-73 -24 -135 -77 -157 -137 -6 -16 -74 -202 -151 -414
-77 -212 -184 -502 -238 -645 -53 -143 -122 -330 -154 -415 -49 -135 -61 -158
-90 -177 l-33 -23 -541 0 c-505 0 -544 -1 -575 -18 -53 -28 -74 -74 -67 -147
18 -187 27 -209 88 -241 41 -21 1252 -21 1325 1 77 23 137 74 171 147 16 35
123 318 237 631 114 312 211 567 214 567 5 0 79 -244 228 -760 69 -235 131
-449 402 -1380 l220 -755 44 -42 c88 -83 226 -82 308 2 33 33 159 288 414 835
68 146 189 407 270 580 81 173 165 354 187 403 23 48 44 87 47 87 3 0 13 -12
23 -28 44 -72 156 -223 181 -242 16 -12 50 -31 78 -41 46 -18 87 -19 709 -19
721 0 714 -1 743 57 8 15 20 80 27 143 12 105 11 119 -4 148 -9 18 -31 42 -49
52 -31 19 -55 20 -628 20 -569 0 -597 1 -620 19 -13 10 -91 114 -173 231 -155
221 -193 260 -270 281 -74 20 -172 -8 -223 -63 -12 -13 -64 -118 -116 -233
-168 -374 -686 -1507 -692 -1513 -2 -2 -12 27 -23 65 -11 37 -54 185 -95 328
-42 143 -103 355 -136 470 -67 232 -185 635 -473 1615 -33 113 -80 272 -104
354 -47 162 -68 197 -147 237 -44 23 -120 32 -157 20z"/>
    <path d="M990 4719 c-76 -8 -151 -36 -224 -83 -285 -182 -338 -582 -112 -832
295 -326 830 -194 941 232 73 281 -106 591 -385 667 -73 20 -141 25 -220 16z
m245 -164 c132 -63 231 -207 242 -349 10 -131 -31 -241 -123 -333 -207 -207
-548 -143 -672 127 -37 80 -42 213 -13 303 42 125 139 225 263 269 82 29 223
21 303 -17z"/>
    <path d="M1139 4234 l-127 -126 -61 56 c-33 31 -68 56 -76 56 -22 0 -55 -37
-55 -61 0 -31 157 -178 190 -179 37 0 320 284 320 322 0 30 -23 58 -48 58 -10
0 -74 -57 -143 -126z"/>
    <path d="M8221 4704 c-86 -23 -171 -74 -242 -145 -294 -292 -163 -798 236
-915 86 -25 221 -23 305 6 233 78 374 275 374 520 0 168 -57 296 -183 413
-106 97 -209 137 -350 136 -47 0 -110 -7 -140 -15z m244 -271 c56 -19 121 -79
150 -138 27 -56 31 -151 10 -214 -18 -56 -81 -128 -136 -157 -50 -25 -168 -31
-223 -10 -138 53 -210 185 -176 325 20 86 93 167 177 197 52 18 140 17 198 -3z"/>
    <path d="M1585 3648 c-18 -10 -46 -34 -167 -143 -68 -61 -73 -158 -15 -239 62
-85 153 -190 222 -255 38 -36 157 -149 265 -251 226 -214 741 -707 1290 -1235
1118 -1076 1108 -1067 1215 -1120 124 -62 196 -79 330 -79 154 1 287 41 401
120 38 26 568 535 1459 1399 181 176 537 518 790 760 535 511 503 480 580 574
89 108 106 141 106 203 1 77 -12 100 -88 161 -37 29 -74 62 -82 71 -34 41
-125 60 -171 36 -11 -6 -47 -50 -80 -99 -95 -139 -139 -184 -900 -921 -317
-307 -471 -457 -830 -806 -1088 -1059 -1055 -1027 -1113 -1044 -59 -16 -132
-8 -188 21 -40 20 -227 193 -604 559 -88 86 -392 378 -675 650 -1224 1177
-1383 1335 -1514 1512 -48 65 -96 122 -106 128 -25 13 -100 12 -125 -2z"/>
  </g>
</svg>
